[ConversionWorker] Logging FFmpeg output to: ffmpeg_logs\ffmpeg_conversion_t_wav_20250525_154929.log\n[ConversionWorker] Getting duration with command: ffprobe -v error -show_entries format=duration -of default=noprint_wrappers=1:nokey=1 Z:\AAAAA01\t.wav\n[ConversionWorker] Duration for t.wav: 11418446 ms\n[ConversionWorker] Starting FFmpeg for t.wav: ffmpeg -i Z:\AAAAA01\t.wav -b:a 256k -vn -y -loglevel error -stats -progress pipe:1 Z:\AAAAA01\t.mp3\n[ConversionWorker] FFmpeg process started. PID: 21280\n[STDOUT RAW] bitrate= 155.5kbits/s\n[STDOUT RAW] total_size=99884\n[STDOUT RAW] out_time_us=5137958\n[STDOUT RAW] out_time_ms=5137958\n[STDOUT RAW] out_time=00:00:05.137958\n[STDOUT RAW] dup_frames=0\n[STDOUT RAW] drop_frames=0\n[STDOUT RAW] speed=9.98x\n[STDOUT RAW] progress=continue\n[STDOUT RAW] bitrate= 157.3kbits/s\n[STDOUT RAW] total_size=192524\n[STDERR RAW] size=      98KiB time=00:00:05.13 bitrate= 155.5kbits/s speed=9.98x\n[STDOUT RAW] out_time_us=9793958\n[STDOUT RAW] out_time_ms=9793958\n[STDOUT RAW] out_time=00:00:09.793958\n[STDOUT RAW] dup_frames=0\n[STDOUT RAW] drop_frames=0\n[STDOUT RAW] speed=9.59x\n[STDOUT RAW] progress=continue\n[STDERR RAW] size=     188KiB time=00:00:09.79 bitrate= 157.3kbits/s speed=9.59x\n[STDOUT RAW] bitrate= 137.2kbits/s\n[STDOUT RAW] total_size=786432\n[STDOUT RAW] out_time_us=45841958\n[STDOUT RAW] out_time_ms=45841958\n[STDOUT RAW] out_time=00:00:45.841958\n[STDOUT RAW] dup_frames=0\n[STDOUT RAW] drop_frames=0\n[STDOUT RAW] speed=29.7x\n[STDOUT RAW] progress=continue\n[STDERR RAW] size=     768KiB time=00:00:45.84 bitrate= 137.2kbits/s speed=29.7x\n[STDOUT RAW] bitrate= 149.6kbits/s\n[STDOUT RAW] total_size=2883584\n[STDOUT RAW] out_time_us=154225958\n[STDOUT RAW] out_time_ms=154225958\n[STDOUT RAW] out_time=00:02:34.225958\n[STDOUT RAW] dup_frames=0\n[STDOUT RAW] drop_frames=0\n[STDOUT RAW] speed=75.1x\n[STDOUT RAW] progress=continue\n[STDERR RAW] size=    2816KiB time=00:02:34.22 bitrate= 149.6kbits/s speed=75.1x\n[STDOUT RAW] bitrate= 156.2kbits/s\n[STDOUT RAW] total_size=4980736\n[STDOUT RAW] out_time_us=255145958\n[STDOUT RAW] out_time_ms=255145958\n[STDOUT RAW] out_time=00:04:15.145958\n[STDOUT RAW] dup_frames=0\n[STDOUT RAW] drop_frames=0\n[STDOUT RAW] speed=99.1x\n[STDOUT RAW] progress=continue\n[STDERR RAW] size=    4864KiB time=00:04:15.14 bitrate= 156.2kbits/s speed=99.1x\n[STDOUT RAW] bitrate= 154.1kbits/s\n[STDOUT RAW] total_size=6815744\n[STDOUT RAW] out_time_us=353833958\n[STDOUT RAW] out_time_ms=353833958\n[STDOUT RAW] out_time=00:05:53.833958\n[STDOUT RAW] dup_frames=0\n[STDOUT RAW] drop_frames=0\n[STDOUT RAW] speed= 115x\n[STDOUT RAW] progress=continue\n[STDERR RAW] size=    6656KiB time=00:05:53.83 bitrate= 154.1kbits/s speed= 115x\n[STDOUT RAW] bitrate= 159.6kbits/s\n[STDOUT RAW] total_size=8912896\n[STDOUT RAW] out_time_us=446857958\n[STDOUT RAW] out_time_ms=446857958\n[STDOUT RAW] out_time=00:07:26.857958\n[STDOUT RAW] dup_frames=0\n[STDOUT RAW] drop_frames=0\n[STDOUT RAW] speed= 124x\n[STDOUT RAW] progress=continue\n[STDERR RAW] size=    8704KiB time=00:07:26.85 bitrate= 159.6kbits/s speed= 124x\n[STDOUT RAW] bitrate= 156.1kbits/s\n[STDOUT RAW] total_size=10485760\n[STDOUT RAW] out_time_us=537529958\n[STDOUT RAW] out_time_ms=537529958\n[STDOUT RAW] out_time=00:08:57.529958\n[STDOUT RAW] dup_frames=0\n[STDOUT RAW] drop_frames=0\n[STDOUT RAW] speed= 130x\n[STDOUT RAW] progress=continue\n[ConversionWorker] Cancel method called.\n[ConversionWorker] Cancellation requested during processing. Terminating FFmpeg.\n[ConversionWorker] Waiting for reader threads to join...\n[STDERR RAW] size=   10240KiB time=00:08:57.52 bitrate= 156.1kbits/s speed= 130x\n[ConversionWorker] Process poll is None after loop, waiting for process to terminate...\n[ConversionWorker] FFmpeg process ended. Return code: 1\n[ConversionWorker] Closing FFmpeg log file.\n